#N canvas 1 1 1902 1091 12;
#X obj 162 142 gemwin;
#X msg 172 90 create \, 1;
#X msg 327 109 fullscreen 2;
#X obj 456 287 gemhead;
#X msg 491 330 draw line;
#X obj 620 154 noise~;
#X obj 619 351 snapshot~;
#X obj 591 445 translateXYZ;
#X obj 709 279 bang~;
#X obj 710 156 noise~;
#X obj 709 353 snapshot~;
#X obj 799 281 bang~;
#X obj 798 158 noise~;
#X obj 797 355 snapshot~;
#X obj 887 283 bang~;
#X obj 529 304 loadbang;
#X obj 624 410 line;
#X msg 627 382 \$1 50;
#X obj 695 414 line;
#X msg 698 386 \$1 50;
#X obj 781 419 line;
#X msg 784 391 \$1 50;
#X obj 618 221 *~;
#X obj 637 188 r~ nearness;
#X obj 717 225 *~;
#X obj 736 192 r~ nearness;
#X obj 832 220 *~;
#X obj 851 187 r~ nearness;
#X obj 215 1081 s~ nearness;
#X msg 500 84 frame 60;
#X obj 484 612 gemhead;
#X msg 519 655 draw line;
#X obj 648 479 noise~;
#X obj 647 676 snapshot~;
#X obj 619 770 translateXYZ;
#X obj 737 604 bang~;
#X obj 738 481 noise~;
#X obj 737 678 snapshot~;
#X obj 827 606 bang~;
#X obj 826 483 noise~;
#X obj 825 680 snapshot~;
#X obj 915 608 bang~;
#X obj 557 629 loadbang;
#X obj 652 735 line;
#X msg 655 707 \$1 50;
#X obj 723 739 line;
#X msg 726 711 \$1 50;
#X obj 809 744 line;
#X msg 812 716 \$1 50;
#X obj 646 546 *~;
#X obj 665 513 r~ nearness;
#X obj 745 550 *~;
#X obj 764 517 r~ nearness;
#X obj 860 545 *~;
#X obj 879 512 r~ nearness;
#X obj 971 308 gemhead;
#X msg 1006 351 draw line;
#X obj 1135 175 noise~;
#X obj 1134 372 snapshot~;
#X obj 1106 466 translateXYZ;
#X obj 1224 300 bang~;
#X obj 1225 177 noise~;
#X obj 1224 374 snapshot~;
#X obj 1314 302 bang~;
#X obj 1313 179 noise~;
#X obj 1398 400 snapshot~;
#X obj 1402 304 bang~;
#X obj 1044 325 loadbang;
#X obj 1139 431 line;
#X msg 1142 403 \$1 50;
#X obj 1210 435 line;
#X msg 1213 407 \$1 50;
#X obj 1296 440 line;
#X msg 1299 412 \$1 50;
#X obj 1133 242 *~;
#X obj 1152 209 r~ nearness;
#X obj 1232 246 *~;
#X obj 1251 213 r~ nearness;
#X obj 1347 241 *~;
#X obj 1366 208 r~ nearness;
#X obj 999 633 gemhead;
#X msg 1034 676 draw line;
#X obj 1163 500 noise~;
#X obj 1162 697 snapshot~;
#X obj 1134 791 translateXYZ;
#X obj 1252 625 bang~;
#X obj 1253 502 noise~;
#X obj 1252 699 snapshot~;
#X obj 1342 627 bang~;
#X obj 1341 504 noise~;
#X obj 1340 701 snapshot~;
#X obj 1430 629 bang~;
#X obj 1072 650 loadbang;
#X obj 1167 756 line;
#X msg 1170 728 \$1 50;
#X obj 1238 760 line;
#X msg 1241 732 \$1 50;
#X obj 1324 765 line;
#X msg 1327 737 \$1 50;
#X obj 1161 567 *~;
#X obj 1180 534 r~ nearness;
#X obj 1260 571 *~;
#X obj 1279 538 r~ nearness;
#X obj 1375 566 *~;
#X obj 1394 533 r~ nearness;
#X obj 461 961 gemhead;
#X msg 496 1004 draw line;
#X obj 625 828 noise~;
#X obj 624 1025 snapshot~;
#X obj 596 1119 translateXYZ;
#X obj 714 953 bang~;
#X obj 715 830 noise~;
#X obj 714 1027 snapshot~;
#X obj 804 955 bang~;
#X obj 803 832 noise~;
#X obj 802 1029 snapshot~;
#X obj 892 957 bang~;
#X obj 534 978 loadbang;
#X obj 629 1084 line;
#X msg 632 1056 \$1 50;
#X obj 700 1088 line;
#X msg 703 1060 \$1 50;
#X obj 786 1093 line;
#X msg 789 1065 \$1 50;
#X obj 623 895 *~;
#X obj 642 862 r~ nearness;
#X obj 722 899 *~;
#X obj 741 866 r~ nearness;
#X obj 837 894 *~;
#X obj 856 861 r~ nearness;
#X obj 489 1286 gemhead;
#X msg 524 1329 draw line;
#X obj 653 1153 noise~;
#X obj 652 1350 snapshot~;
#X obj 624 1444 translateXYZ;
#X obj 742 1278 bang~;
#X obj 743 1155 noise~;
#X obj 742 1352 snapshot~;
#X obj 832 1280 bang~;
#X obj 831 1157 noise~;
#X obj 830 1354 snapshot~;
#X obj 920 1282 bang~;
#X obj 562 1303 loadbang;
#X obj 657 1409 line;
#X msg 660 1381 \$1 50;
#X obj 728 1413 line;
#X msg 731 1385 \$1 50;
#X obj 814 1418 line;
#X msg 817 1390 \$1 50;
#X obj 651 1220 *~;
#X obj 670 1187 r~ nearness;
#X obj 750 1224 *~;
#X obj 769 1191 r~ nearness;
#X obj 865 1219 *~;
#X obj 884 1186 r~ nearness;
#X obj 976 982 gemhead;
#X msg 1011 1025 draw line;
#X obj 1140 849 noise~;
#X obj 1139 1046 snapshot~;
#X obj 1111 1140 translateXYZ;
#X obj 1229 974 bang~;
#X obj 1230 851 noise~;
#X obj 1229 1048 snapshot~;
#X obj 1319 976 bang~;
#X obj 1318 853 noise~;
#X obj 1317 1050 snapshot~;
#X obj 1407 978 bang~;
#X obj 1049 999 loadbang;
#X obj 1144 1105 line;
#X msg 1147 1077 \$1 50;
#X obj 1215 1109 line;
#X msg 1218 1081 \$1 50;
#X obj 1301 1114 line;
#X msg 1304 1086 \$1 50;
#X obj 1138 916 *~;
#X obj 1157 883 r~ nearness;
#X obj 1237 920 *~;
#X obj 1256 887 r~ nearness;
#X obj 1352 915 *~;
#X obj 1371 882 r~ nearness;
#X obj 1004 1307 gemhead;
#X msg 1039 1350 draw line;
#X obj 1168 1174 noise~;
#X obj 1167 1371 snapshot~;
#X obj 1139 1465 translateXYZ;
#X obj 1257 1299 bang~;
#X obj 1258 1176 noise~;
#X obj 1257 1373 snapshot~;
#X obj 1347 1301 bang~;
#X obj 1346 1178 noise~;
#X obj 1345 1375 snapshot~;
#X obj 1435 1303 bang~;
#X obj 1077 1324 loadbang;
#X obj 1172 1430 line;
#X msg 1175 1402 \$1 50;
#X obj 1243 1434 line;
#X msg 1246 1406 \$1 50;
#X obj 1329 1439 line;
#X msg 1332 1411 \$1 50;
#X obj 1166 1241 *~;
#X obj 1185 1208 r~ nearness;
#X obj 1265 1245 *~;
#X obj 1284 1212 r~ nearness;
#X obj 1380 1240 *~;
#X obj 1399 1207 r~ nearness;
#X obj 224 965 clip~ 0 3;
#X obj 256 261 ultraleap;
#X obj 276 214 tgl 19 0 empty empty empty 0 -10 0 12 #fcfcfc #000000 #000000 0 1;
#X obj 330 223 metro 30;
#X obj 211 311 print;
#X obj 266 325 unpack 0 0 0 0;
#X obj 225 790 vsl 19 162 0 3 0 1 empty empty 0 -9 0 0 4 #ffffff #000000 #000001 16100 0;
#X floatatom 361 353 5 0 0 0 - - - 0;
#X obj 262 45 loadbang;
#X obj 337 491 line;
#X msg 134 201 palm_position 1;
#X obj 235 373 route 0;
#X obj 207 416 route palm;
#X obj 214 455 route position;
#X obj 216 490 unpack 0 0 0;
#X floatatom 248 576 5 0 0 0 - - - 0;
#X obj 248 634 line;
#X msg 248 608 \$1 100;
#X floatatom 246 666 5 0 0 0 - - - 0;
#X obj 368 667 clip 100 500;
#X obj 385 712 - 100;
#X obj 352 820 / 400;
#X obj 343 898 * 3;
#X obj 322 941 +;
#X obj 372 590 * 3;
#X obj 1635 366 *~;
#X obj 1082 522 osc~ 0.01;
#X obj 1076 556 abs~;
#X obj 1748 299 *~;
#X obj 1679 232 r~ nearness;
#X obj 220 1046 +~ 0.01;
#X obj 1721 260 /~ 3;
#X obj 1749 545 rev3~, f 23;
#X msg 1838 484 98;
#X obj 1696 500 *~ 0.1;
#X obj 1760 254 osc~ 200;
#X obj 362 399 == 0;
#X msg 123 345 pinch_strength 1;
#X obj 224 1009 lop~ 1;
#X msg 355 440 \$1 50;
#X msg 1022 157 width 1;
#X msg 1027 223 width 2;
#X msg 974 523 width 3;
#X msg 975 604 width 4;
#X obj 1542 235 noise~;
#X obj 64 499 route pinch_strength;
#X obj 76 573 vsl 19 162 0 1 0 0 empty empty empty 0 -9 0 12 #fcfcfc #000000 #000000 0 1;
#X obj 83 765 *~;
#X obj 113 697 line~;
#X msg 117 657 \$1 100;
#X msg 414 431 \$1 50;
#X obj 401 479 line~;
#X obj 111 798 *~;
#X obj 32 906 > 0.9;
#X obj 44 945 sel 1;
#X obj 89 950 sel 1;
#X msg 91 994 0;
#X msg 45 992 1;
#X obj 78 1069 sel 1;
#X obj 70 1036 change;
#X obj 163 874 osc~ 5000;
#X obj 164 924 line~;
#X obj 171 957 *~;
#X obj 139 902 tgl 19 0 empty empty empty 0 -10 0 12 #fcfcfc #000000 #000000 0 1;
#X obj 412 526 scope;
#X obj 84 908 < 0.2;
#X obj 90 829 osc~ 1000;
#X obj 1555 305 lop~ 300;
#X obj 1543 376 lop~ 300;
#X obj 1614 236 osc~ 80;
#X msg 1273 41 draw line;
#X obj 166 1030 line;
#X obj 1416 65 colorRGB;
#X obj 1338 68 gemhead;
#X floatatom 1323 137 5 0 0 0 - - - 0;
#X msg 148 995 1 \, 0 200;
#X obj 1844 401 loadbang;
#X obj 451 360 circle 2;
#X obj 966 381 circle 2;
#X obj 994 706 circle 2;
#X obj 1003 1380 circle 2;
#X obj 484 1359 circle 2;
#X obj 456 1034 circle 2;
#X obj 971 1055 circle 2;
#X obj 479 685 circle 2;
#X obj 1271 113 circle 3;
#X msg 932 120 width 2;
#X msg 1219 91 width 4;
#X obj 1714 594 dac~ 1 2;
#X obj 180 575 random 1000;
#X obj 152 1100 bng 19 250 50 0 empty empty empty 0 -10 0 12 #fcfcfc #000000 #000000;
#X connect 1 0 0 0;
#X connect 2 0 0 0;
#X connect 3 0 7 0;
#X connect 4 0 282 0;
#X connect 5 0 22 0;
#X connect 6 0 17 0;
#X connect 7 0 282 0;
#X connect 8 0 6 0;
#X connect 9 0 24 0;
#X connect 10 0 19 0;
#X connect 11 0 10 0;
#X connect 12 0 26 0;
#X connect 13 0 21 0;
#X connect 14 0 13 0;
#X connect 15 0 4 0;
#X connect 16 0 7 1;
#X connect 17 0 16 0;
#X connect 18 0 7 2;
#X connect 19 0 18 0;
#X connect 20 0 7 3;
#X connect 21 0 20 0;
#X connect 22 0 6 0;
#X connect 23 0 22 1;
#X connect 24 0 10 0;
#X connect 25 0 24 1;
#X connect 26 0 13 0;
#X connect 27 0 26 1;
#X connect 29 0 0 0;
#X connect 30 0 34 0;
#X connect 31 0 289 0;
#X connect 32 0 49 0;
#X connect 33 0 44 0;
#X connect 34 0 289 0;
#X connect 35 0 33 0;
#X connect 36 0 51 0;
#X connect 37 0 46 0;
#X connect 38 0 37 0;
#X connect 39 0 53 0;
#X connect 40 0 48 0;
#X connect 41 0 40 0;
#X connect 42 0 31 0;
#X connect 43 0 34 1;
#X connect 44 0 43 0;
#X connect 45 0 34 2;
#X connect 46 0 45 0;
#X connect 47 0 34 3;
#X connect 48 0 47 0;
#X connect 49 0 33 0;
#X connect 50 0 49 1;
#X connect 51 0 37 0;
#X connect 52 0 51 1;
#X connect 53 0 40 0;
#X connect 54 0 53 1;
#X connect 55 0 59 0;
#X connect 56 0 283 0;
#X connect 57 0 74 0;
#X connect 58 0 69 0;
#X connect 59 0 283 0;
#X connect 60 0 58 0;
#X connect 61 0 76 0;
#X connect 62 0 71 0;
#X connect 63 0 62 0;
#X connect 64 0 78 0;
#X connect 65 0 73 0;
#X connect 66 0 65 0;
#X connect 67 0 56 0;
#X connect 68 0 59 1;
#X connect 69 0 68 0;
#X connect 70 0 59 2;
#X connect 71 0 70 0;
#X connect 72 0 59 3;
#X connect 73 0 72 0;
#X connect 74 0 58 0;
#X connect 75 0 74 1;
#X connect 76 0 62 0;
#X connect 77 0 76 1;
#X connect 78 0 65 0;
#X connect 79 0 78 1;
#X connect 80 0 84 0;
#X connect 81 0 284 0;
#X connect 82 0 99 0;
#X connect 83 0 94 0;
#X connect 84 0 284 0;
#X connect 85 0 83 0;
#X connect 86 0 101 0;
#X connect 87 0 96 0;
#X connect 88 0 87 0;
#X connect 89 0 103 0;
#X connect 90 0 98 0;
#X connect 91 0 90 0;
#X connect 92 0 81 0;
#X connect 93 0 84 1;
#X connect 94 0 93 0;
#X connect 95 0 84 2;
#X connect 96 0 95 0;
#X connect 97 0 84 3;
#X connect 98 0 97 0;
#X connect 99 0 83 0;
#X connect 100 0 99 1;
#X connect 101 0 87 0;
#X connect 102 0 101 1;
#X connect 103 0 90 0;
#X connect 104 0 103 1;
#X connect 105 0 109 0;
#X connect 106 0 287 0;
#X connect 107 0 124 0;
#X connect 108 0 119 0;
#X connect 109 0 287 0;
#X connect 110 0 108 0;
#X connect 111 0 126 0;
#X connect 112 0 121 0;
#X connect 113 0 112 0;
#X connect 114 0 128 0;
#X connect 115 0 123 0;
#X connect 116 0 115 0;
#X connect 117 0 106 0;
#X connect 118 0 109 1;
#X connect 119 0 118 0;
#X connect 120 0 109 2;
#X connect 121 0 120 0;
#X connect 122 0 109 3;
#X connect 123 0 122 0;
#X connect 124 0 108 0;
#X connect 125 0 124 1;
#X connect 126 0 112 0;
#X connect 127 0 126 1;
#X connect 128 0 115 0;
#X connect 129 0 128 1;
#X connect 130 0 134 0;
#X connect 131 0 286 0;
#X connect 132 0 149 0;
#X connect 133 0 144 0;
#X connect 134 0 286 0;
#X connect 135 0 133 0;
#X connect 136 0 151 0;
#X connect 137 0 146 0;
#X connect 138 0 137 0;
#X connect 139 0 153 0;
#X connect 140 0 148 0;
#X connect 141 0 140 0;
#X connect 142 0 131 0;
#X connect 143 0 134 1;
#X connect 144 0 143 0;
#X connect 145 0 134 2;
#X connect 146 0 145 0;
#X connect 147 0 134 3;
#X connect 148 0 147 0;
#X connect 149 0 133 0;
#X connect 150 0 149 1;
#X connect 151 0 137 0;
#X connect 152 0 151 1;
#X connect 153 0 140 0;
#X connect 154 0 153 1;
#X connect 155 0 159 0;
#X connect 156 0 288 0;
#X connect 157 0 174 0;
#X connect 158 0 169 0;
#X connect 159 0 288 0;
#X connect 160 0 158 0;
#X connect 161 0 176 0;
#X connect 162 0 171 0;
#X connect 163 0 162 0;
#X connect 164 0 178 0;
#X connect 165 0 173 0;
#X connect 166 0 165 0;
#X connect 167 0 156 0;
#X connect 168 0 159 1;
#X connect 169 0 168 0;
#X connect 170 0 159 2;
#X connect 171 0 170 0;
#X connect 172 0 159 3;
#X connect 173 0 172 0;
#X connect 174 0 158 0;
#X connect 175 0 174 1;
#X connect 176 0 162 0;
#X connect 177 0 176 1;
#X connect 178 0 165 0;
#X connect 179 0 178 1;
#X connect 180 0 184 0;
#X connect 181 0 285 0;
#X connect 182 0 199 0;
#X connect 183 0 194 0;
#X connect 184 0 285 0;
#X connect 185 0 183 0;
#X connect 186 0 201 0;
#X connect 187 0 196 0;
#X connect 188 0 187 0;
#X connect 189 0 203 0;
#X connect 190 0 198 0;
#X connect 191 0 190 0;
#X connect 192 0 181 0;
#X connect 193 0 184 1;
#X connect 194 0 193 0;
#X connect 195 0 184 2;
#X connect 196 0 195 0;
#X connect 197 0 184 3;
#X connect 198 0 197 0;
#X connect 199 0 183 0;
#X connect 200 0 199 1;
#X connect 201 0 187 0;
#X connect 202 0 201 1;
#X connect 203 0 190 0;
#X connect 204 0 203 1;
#X connect 205 0 243 0;
#X connect 206 0 210 0;
#X connect 206 1 209 0;
#X connect 206 1 216 0;
#X connect 207 0 208 0;
#X connect 208 0 206 0;
#X connect 210 3 212 0;
#X connect 211 0 205 0;
#X connect 212 0 241 0;
#X connect 212 0 255 0;
#X connect 213 0 1 0;
#X connect 213 0 2 0;
#X connect 213 0 29 0;
#X connect 213 0 215 0;
#X connect 213 0 207 0;
#X connect 213 0 242 0;
#X connect 214 0 229 0;
#X connect 215 0 206 0;
#X connect 216 0 217 0;
#X connect 216 0 250 0;
#X connect 217 0 218 0;
#X connect 218 0 219 0;
#X connect 219 1 220 0;
#X connect 220 0 222 0;
#X connect 221 0 223 0;
#X connect 222 0 221 0;
#X connect 223 0 224 0;
#X connect 224 0 225 0;
#X connect 225 0 226 0;
#X connect 226 0 227 0;
#X connect 227 0 228 1;
#X connect 228 0 211 0;
#X connect 229 0 228 0;
#X connect 230 0 239 0;
#X connect 231 0 232 0;
#X connect 233 0 239 0;
#X connect 234 0 236 0;
#X connect 235 0 28 0;
#X connect 236 0 233 1;
#X connect 236 0 230 1;
#X connect 237 0 293 0;
#X connect 237 1 293 1;
#X connect 238 0 237 2;
#X connect 238 0 237 3;
#X connect 239 0 237 0;
#X connect 239 0 237 1;
#X connect 240 0 233 0;
#X connect 241 0 244 0;
#X connect 242 0 206 0;
#X connect 243 0 235 0;
#X connect 244 0 214 0;
#X connect 245 0 282 0;
#X connect 246 0 283 0;
#X connect 247 0 289 0;
#X connect 248 0 284 0;
#X connect 249 0 272 0;
#X connect 250 0 251 0;
#X connect 251 0 254 0;
#X connect 251 0 258 0;
#X connect 251 0 270 0;
#X connect 252 0 257 1;
#X connect 253 0 252 0;
#X connect 254 0 253 0;
#X connect 255 0 256 0;
#X connect 256 0 252 1;
#X connect 256 0 269 0;
#X connect 257 0 239 0;
#X connect 258 0 259 0;
#X connect 259 0 262 0;
#X connect 260 0 261 0;
#X connect 261 0 264 0;
#X connect 262 0 264 0;
#X connect 263 0 295 0;
#X connect 264 0 263 0;
#X connect 264 0 268 0;
#X connect 265 0 267 0;
#X connect 266 0 267 1;
#X connect 267 0 239 0;
#X connect 270 0 260 0;
#X connect 271 0 257 0;
#X connect 272 0 230 0;
#X connect 272 0 273 0;
#X connect 273 0 230 0;
#X connect 274 0 230 0;
#X connect 274 0 233 0;
#X connect 275 0 290 0;
#X connect 276 0 279 0;
#X connect 277 0 290 0;
#X connect 278 0 277 0;
#X connect 279 0 277 1;
#X connect 279 0 277 2;
#X connect 279 0 277 3;
#X connect 280 0 266 0;
#X connect 280 0 276 0;
#X connect 281 0 238 0;
#X connect 281 0 275 0;
#X connect 292 0 290 0;
#X connect 294 0 265 0;
#X connect 295 0 280 0;
#X connect 295 0 294 0;
